# xmcd
#
# Track frame offsets: 
#        150
#        32619
#        61763
#        120657
#        162261
#        192435
#        209631
#
# Disc length: 3184 seconds
#
# Revision: 34
# Processed by: cddbd v1.5.2PL0 Copyright (c) Steve Scherf et al.
# Submitted via: ExactAudioCopy v0.95b4
#
DISCID=5e0c6e07
DTITLE=Eric Clapton - 24 Nights [CD 2)
DYEAR=1991
DGENRE=Rock
TTITLE0=Pretending
TTITLE1=Bad Love
TTITLE2=Old Love
TTITLE3=Wonderful Tonight
TTITLE4=Bell Bottom Blues
TTITLE5=Hard Times 
TTITLE6=Edge Of Darkness 
EXTD=This is an all live recording. No overdubs or fixes\n\nRecorded l
EXTD=ive at the Royal Albert Hall, London, 1990 and 1991
EXTT0=(9 piece band)
EXTT1=(9 piece band)
EXTT2=(9 piece band)
EXTT3=(9 piece band)
EXTT4=(9 piece band)
EXTT5=(also National Philharmonic Orchestra directed by Nichael Kamen)
EXTT6=(also National Philharmonic Orchestra directed by Nichael Kamen)
PLAYORDER=
